# xmcd
#
# Track frame offsets:
#	150
#	18393
#	33658
#	40946
#	59370
#	76288
#	96967
#	117900
#	132952
#	145957
#	162759
#	178591
#	209794
#
# Disc length: 2971 seconds
#
# Revision: 1
# Processed by: cddbd v1.5.1PL0 Copyright (c) Steve Scherf et al.
# Submitted via: CDex 1.50Beta5
#
DISCID=b80b990d
DTITLE=YOUTH26 - YOUTH26
DYEAR=2003
DGENRE=Rock
TTITLE0=YOUTH26/八月
TTITLE1=YOUTH26/PUNK IT UP
TTITLE2=YOUTH26/GET HAPPY
TTITLE3=YOUTH26/僕のキモチ
TTITLE4=YOUTH26/スタートライン
TTITLE5=YOUTH26/青い空の下で
TTITLE6=YOUTH26/キャプテン ソルジャー
TTITLE7=YOUTH26/恋のミサイル
TTITLE8=YOUTH26/伝染病
TTITLE9=YOUTH26/ハイオク満タン
TTITLE10=YOUTH26/26
TTITLE11=YOUTH26/切符
TTITLE12=オナニーマシーン/安全日
EXTD=
EXTT0=
EXTT1=
EXTT2=
EXTT3=
EXTT4=
EXTT5=
EXTT6=
EXTT7=
EXTT8=
EXTT9=
EXTT10=
EXTT11=
EXTT12=
PLAYORDER=
